<svg width="456" height="318" xmlns="http://www.w3.org/2000/svg">

 <g id="imagebot_2" label="Layer 1">
  <path label="Layer 1" id="imagebot_19" d="M388.584,158.92 C388.584,246.69 317.267,317.842 229.294,317.842 C141.32,317.842 70.0038,246.69 70.0038,158.92 C70.0038,71.1501 141.32,-0.00169389 229.294,-0.00169389 C317.267,-0.00169389 388.584,71.1501 388.584,158.92 z" fill="#000000"/>
  <rect label="Layer 1" id="imagebot_18" rx="80" height="199.29" width="456.43" y="462.36" x="152.86" fill="#000000" transform="translate(-0, -0.000506805) matrix(1, 0, 0, 1, -152.86, -400.918)"/>
  <g id="imagebot_14" label="Layer 1" transform="translate(-0, -0.000506805) translate(-152.86, -400.918)">
   <path id="imagebot_17" d="M192.94,509.91L217.18401,610.41998L241.67999,610.41998L253.04401,550.82098L264.40799,610.41998L289.28299,610.41998L314.66299,509.91L286.379,509.91L276.78299,568.49902L265.41901,509.91L241.049,509.91L229.811,567.99402L220.214,509.91L192.94,509.91z" fill="#ffffff"/>
   <rect id="imagebot_16" height="71.721" width="27.274" y="538.19" x="324.76" fill="#ffffff"/>
   <path id="imagebot_15" d="M354.33301,517.22998A15.657,11.869 0 1 1 323.01801,517.22998A15.657,11.869 0 1 1 354.33301,517.22998z" fill="#ffffff"/>
  </g>
  <g id="imagebot_11" label="Layer 1" transform="translate(-0, -0.000506805) translate(-152.86, -400.918)">
   <path id="imagebot_13" d="M450.28,477.38C448.392,477.57901 446.513,477.48999 444.62399,477.974C343.07401,503.96399 432.65701,616.034 355.54501,648.164L533.565,647.91101C566.80499,647.86401 593.565,621.151 593.565,587.91101L593.565,537.38C593.565,504.14001 566.80499,477.38 533.565,477.38L450.28,477.38z" fill="#ffffff"/>
   <path id="imagebot_12" d="M425.78,509.91L514.16803,509.91L514.16803,533.64899L453.55899,533.64899L453.55899,555.367L506.59201,555.367L506.59201,578.09497L453.55899,578.09497L453.55899,610.41998L425.90601,610.41998L425.78,509.91z" fill="#000000"/>
  </g>
  <g id="imagebot_8" label="Layer 1" transform="translate(-0, -0.000506805) translate(-152.86, -400.918)">
   <rect id="imagebot_10" height="71.721" width="27.274" y="537.69" x="527.8" fill="#000000"/>
   <path id="imagebot_9" d="M557.37,516.72498A15.657,11.869 0 1 1 526.05499,516.72498A15.657,11.869 0 1 1 557.37,516.72498z" fill="#000000"/>
  </g>
  <title label="Layer 1"/>
 </g>
 <metadata id="imagebot_1">image/svg+xml2012-08-10T11:43:54Place without wifiPavel Vrankafreewifi</metadata>
</svg>